<svg class="icon" viewBox="0 0 1262 1024" width="157.75" height="128"
     version="1.1" xmlns="http://www.w3.org/2000/svg">
    <path d="M289.485141 50.7904a51.2 51.2 0 0 1-5.870933 72.192A512.136533 512.136533 0 0 0 102.400341 514.389333c0 156.842667 70.280533 297.198933 181.213867 391.4752a51.2 51.2 0 0 1-66.286933 78.0288A614.536533 614.536533 0 0 1 0.000341 514.389333 614.536533 614.536533 0 0 1 217.327275 44.919467a51.2 51.2 0 0 1 72.157866 5.870933z m652.5952 0a51.2 51.2 0 0 1 72.157867-5.870933 614.570667 614.570667 0 0 1 217.326933 469.504 614.536533 614.536533 0 0 1-217.326933 469.504 51.2 51.2 0 0 1-66.286933-78.062934 512.136533 512.136533 0 0 0 181.248-391.441066c0-156.842667-70.314667-297.198933-181.248-391.441067a51.2 51.2 0 0 1-5.870934-72.192z m-226.645333 464.896a99.6352 99.6352 0 1 1-199.304533 0 99.6352 99.6352 0 0 1 199.2704 0z m-280.4736-227.464533a51.2 51.2 0 0 0-68.130133-76.458667C284.331008 285.354667 232.448341 394.513067 232.448341 515.720533s51.848533 230.4 134.3488 303.9232a51.2 51.2 0 0 0 68.130134-76.458666c-60.928-54.272-100.078933-135.748267-100.078934-227.464534s39.150933-173.1584 100.078934-227.464533z m429.7728-76.458667a51.2 51.2 0 1 0-68.130133 76.458667c60.928 54.306133 100.078933 135.748267 100.078933 227.464533s-39.150933 173.1584-100.078933 227.464533a51.2 51.2 0 0 0 68.130133 76.458667c82.500267-73.5232 134.3488-182.715733 134.3488-303.9232s-51.848533-230.4-134.3488-303.889067z"
          fill="#52C41A"/>
</svg>