<svg viewBox="0 0 1024 1024" width="128" height="128"
     version="1.1" xmlns="http://www.w3.org/2000/svg">
    <path d="M512 914.285714A402.285714 402.285714 0 1 1 914.285714 512 403.017143 403.017143 0 0 1 512 914.285714z m0-731.428571A329.142857 329.142857 0 1 0 841.142857 512 329.874286 329.874286 0 0 0 512 182.857143z"
          fill="#00AAFF"/>
    <path d="M512 512m-219.428571 0a219.428571 219.428571 0 1 0 438.857142 0 219.428571 219.428571 0 1 0-438.857142 0Z"
          fill="#00AAFF"/>
    <path d="M475.428571 0m36.571429 0l0 0q36.571429 0 36.571429 36.571429l0 73.142857q0 36.571429-36.571429 36.571428l0 0q-36.571429 0-36.571429-36.571428l0-73.142857q0-36.571429 36.571429-36.571429Z"
          fill="#00AAFF"/>
    <path d="M475.428571 877.714286m36.571429 0l0 0q36.571429 0 36.571429 36.571428l0 73.142857q0 36.571429-36.571429 36.571429l0 0q-36.571429 0-36.571429-36.571429l0-73.142857q0-36.571429 36.571429-36.571428Z"
          fill="#00AAFF"/>
    <path d="M146.285714 475.428571m0 36.571429l0 0q0 36.571429-36.571428 36.571429l-73.142857 0q-36.571429 0-36.571429-36.571429l0 0q0-36.571429 36.571429-36.571429l73.142857 0q36.571429 0 36.571428 36.571429Z"
          fill="#00AAFF"/>
    <path d="M1024 475.428571m0 36.571429l0 0q0 36.571429-36.571429 36.571429l-73.142857 0q-36.571429 0-36.571428-36.571429l0 0q0-36.571429 36.571428-36.571429l73.142857 0q36.571429 0 36.571429 36.571429Z"
          fill="#00AAFF"/>
</svg>