<svg width="128" height="128" viewBox="0 0 1024 1024"
     version="1.1" xmlns="http://www.w3.org/2000/svg">
    <path d="M512 465.454545c5.911273 0 11.543273 1.117091 16.756364 3.118545l168.587636-97.326545C654.801455 315.345455 587.636364 279.272727 512 279.272727 433.710545 279.272727 364.450909 317.952 322.234182 377.204364l165.096727 95.325091C494.498909 468.061091 502.923636 465.454545 512 465.454545z"/>
    <path d="M558.545455 512c0 17.221818-9.355636 32.256-23.272727 40.308364l0 191.255273C652.893091 731.880727 744.727273 632.692364 744.727273 512c0-36.212364-8.285091-70.516364-23.04-101.096727l-163.607273 94.440727C558.405818 507.531636 558.545455 509.765818 558.545455 512z"/>
    <path d="M1024 512c0-282.763636-229.236364-512-512-512C229.236364 0 0 229.236364 0 512c0 282.763636 229.236364 512 512 512C794.763636 1024 1024 794.763636 1024 512zM443.904 782.894545l-71.400727 74.472727 0.372364-103.191273c-10.193455-5.864727-19.968-12.381091-29.323636-19.409455l-94.859636 40.680727 40.634182-94.859636c-6.097455-8.052364-11.776-16.430545-16.989091-25.134545l-103.144727 2.141091 73.169455-72.657455c-3.025455-11.264-5.399273-22.760727-6.981818-34.536727l-95.790545-38.306909 95.744-38.306909c1.396364-10.146909 3.304727-20.107636 5.771636-29.882182L166.679273 372.549818l103.098182 0.372364c5.911273-10.24 12.381091-20.061091 19.502545-29.416727L248.645818 248.738909l94.766545 40.587636C351.511273 283.229091 359.889455 277.504 368.64 272.290909L366.498909 169.239273l72.610909 73.122909c11.264-3.025455 22.853818-5.399273 34.629818-7.028364L512 139.636364l38.260364 95.697455c10.146909 1.396364 20.154182 3.351273 29.928727 5.771636l71.307636-74.379636L651.170909 269.824c10.24 5.911273 20.061091 12.427636 29.416727 19.502545l94.766545-40.587636L734.72 343.505455c6.097455 8.052364 11.822545 16.477091 17.035636 25.227636l103.051636-2.141091-73.122909 72.610909c3.025455 11.264 5.399273 22.807273 6.981818 34.583273l95.744 38.306909-95.790545 38.306909c-1.396364 10.146909-3.304727 20.061091-5.771636 29.835636l74.426182 71.354182-103.144727-0.372364c-5.864727 10.193455-12.381091 19.968-19.456 29.323636l40.680727 94.859636-94.906182-40.680727c-8.052364 6.097455-16.430545 11.776-25.088 16.942545l2.141091 103.191273-72.704-73.216c-11.217455 3.025455-22.760727 5.352727-34.490182 6.981818L512 884.503273l-38.353455-95.837091C463.546182 787.269818 453.632 785.361455 443.904 782.894545z"/>
    <path d="M465.501091 513.629091 299.194182 417.652364C286.394182 446.464 279.272727 478.394182 279.272727 512c0 120.692364 91.834182 219.880727 209.454545 231.563636l0-191.255273C475.275636 544.535273 466.059636 530.199273 465.501091 513.629091z"/>
</svg>