<svg width="128" height="128" viewBox="0 0 1024 1024"
     version="1.1" xmlns="http://www.w3.org/2000/svg">
    <path d="M138.282667 98.56c-9.813333 10.24-15.616 26.026667-15.616 46.549333v733.738667c0 20.565333 5.802667 36.394667 15.616 46.549333l2.517333 2.389334 417.792-410.922667v-9.728L140.8 96.128l-2.56 2.389333h0.042667z"
          fill="#00C5FF"/>
    <path d="M697.813333 653.909333l-139.264-137.045333v-9.728l139.264-136.96 3.2 1.706667 164.992 92.202666c47.104 26.325333 47.104 69.461333 0 95.829334l-164.992 92.202666-3.2 1.792z"
          fill="#FFBD00"/>
    <path d="M701.013333 652.117333L558.506667 512l-420.266667 413.44c15.530667 16.213333 41.216 18.218667 70.101333 2.090667l492.629334-275.413334"
          fill="#EB2C4E"/>
    <path d="M701.013333 371.882667L208.384 96.469333c-28.885333-16.128-54.570667-14.122667-70.101333 2.048L558.549333 512l142.464-140.117333z"
          fill="#00F076"/>
</svg>