<svg viewBox="0 0 1024 1024" width="128" height="128"
     version="1.1" xmlns="http://www.w3.org/2000/svg">
    <path d="M112.390244 12.487805m399.609756 0l0 0q399.609756 0 399.609756 399.609756l0 0q0 399.609756-399.609756 399.609756l0 0q-399.609756 0-399.609756-399.609756l0 0q0-399.609756 399.609756-399.609756Z"
          fill="#242424"/>
    <path d="M174.829268 174.829268m87.414634 0l499.512196 0q87.414634 0 87.414634 87.414634l0 499.512196q0 87.414634-87.414634 87.414634l-499.512196 0q-87.414634 0-87.414634-87.414634l0-499.512196q0-87.414634 87.414634-87.414634Z"
          fill="#221817" fill-opacity=".5"/>
    <path d="M504.457366 703.662829c-41.347122-33.005268-83.118829-66.435122-124.041366-100.314536A42.645854 42.645854 0 0 1 367.640976 581.931707c-14.485854-70.306341-28.135024-141.02478-42.208781-211.755707-2.122927-9.865366 0-14.573268 10.24-18.007415 57.11922-20.567415 113.389268-42.433561 170.508488-63.013463a39.211707 39.211707 0 0 1 24.28878 0c57.11922 20.579902 113.813854 42.008976 170.508488 63.013463 8.941268 3.434146 12.362927 7.292878 10.227512 16.733659a38218.951805 38218.951805 0 0 1-42.633365 214.740293c-1.698341 7.292878-6.818341 15.010341-12.787513 19.730731-40.910049 33.854439-82.257171 66.859707-124.028878 100.302049-2.997073 3.421659-8.104585 5.144976-13.224585 8.142049-5.12-2.997073-10.227512-4.72039-14.061268-8.142049z"
          fill="#D09D32"/>
    <path d="M692.798439 203.388878c-1.261268 8.117073-1.261268 12.17561-2.535024 16.234146-8.042146 30.045659-15.659707 60.078829-23.701854 89.712391-4.220878 15.434927-6.343805 16.646244-21.578927 11.363902-37.238634-13.386927-74.477268-27.185951-112.140488-39.374049-8.891317-2.834732-20.729756-2.834732-30.045658 0-37.238634 12.188098-74.052683 25.974634-110.866732 38.974439-16.508878 5.681951-18.194732 4.870244-22.428097-10.964292a6820.689171 6820.689171 0 0 1-23.277269-88.501074c-1.273756-4.458146-1.698341-9.32839-2.95961-17.857561 15.659707 5.681951 28.347317 10.152585 40.198244 15.02283 2.535024 1.211317 4.233366 6.094049 4.233366 9.340878 1.273756 19.893073 9.303415 29.633561 28.347317 32.88039 21.166829 3.646439 39.786146-1.623415 54.596683-16.646244 12.68761-12.587707 12.68761-24.35122 2.95961-39.374049-2.95961-4.470634-3.384195-12.587707-1.273756-16.646244 11.426341-19.480976 24.551024-37.763122 37.238634-56.444878 5.494634-8.516683 10.165073-8.117073 15.659707 0 12.275512 18.681756 25.387707 37.363512 37.238635 56.444878 2.547512 4.058537 1.698341 12.17561-1.261269 16.646244-9.740488 14.610732-9.740488 27.198439 2.95961 39.374049 16.071805 15.834537 35.964878 21.516488 58.817561 15.422439 16.933463-4.458146 23.277268-13.386927 24.538537-30.445268 0.424585-4.058537 3.396683-10.152585 6.780878-11.776 11.426341-4.458146 23.26478-7.704976 38.499902-13.386927z m24.97561 222.869854c-5.931707-28.821854 8.454244-58.055805 32.580683-69.00761 22.852683-10.564683 46.129951-20.70478 69.407219-31.269463 4.220878-2.023024 8.454244-3.246829 16.920976-6.893269-2.95961 10.552195-5.91922 17.457951-7.192976 24.35122-4.657951 29.633561-22.428098 46.691902-51.624585 56.03278-20.317659 6.893268-38.936976 17.445463-60.091317 26.786342zM203.613659 320.711805l20.317658 8.516683c24.113951 10.564683 47.815805 21.928585 71.929756 32.48078 10.589659 4.470634 16.508878 10.964293 18.20722 22.328195 1.261268 10.152585 3.796293 20.70478 6.343805 30.844878 2.122927 9.353366-0.424585 12.600195-10.152586 8.129561-27.098537-12.17561-53.747512-24.35122-80.833561-36.539317-3.80878-1.623415-8.042146-4.458146-9.303414-7.704975C212.917073 360.897561 206.573268 342.627902 199.804878 324.358244l3.808781-3.646439z m605.558634 82.419512a1991.180488 1991.180488 0 0 1-19.456 53.173073c-1.273756 3.246829-4.657951 6.081561-8.042147 7.704976-25.812293 12.188098-52.049171 23.552-82.094829 37.351024 1.685854-10.951805 3.371707-18.669268 3.808781-25.974634 0.836683-24.763317 13.112195-39.786146 38.087804-47.50361 17.770146-5.681951 34.266537-15.022829 51.624586-22.727805 4.233366-2.035512 8.454244-3.246829 12.68761-4.870243 1.273756 0.811707 2.122927 2.023024 3.384195 2.834731zM230.275122 400.27161c3.80878 1.211317 7.617561 2.023024 11.426341 3.646439 23.689366 10.552195 46.966634 21.516488 70.668488 31.669073 9.740488 4.058537 14.810537 10.152585 16.508878 20.292683 2.110439 13.811512 5.070049 27.198439 8.454244 43.445073-6.343805-1.623415-10.152585-2.435122-13.112195-3.658927-21.578927-9.740488-43.170341-19.081366-64.324683-29.221463-5.082537-2.44761-11.850927-6.094049-13.53678-10.964293-7.205463-17.058341-12.700098-34.915902-19.043903-52.373854 0.836683-0.811707 2.122927-1.623415 2.95961-2.834731zM683.91961 571.192195c1.685854-8.529171 4.657951-16.646244 5.070049-25.175415 0.849171-23.139902 13.112195-35.715122 35.128195-43.432585 18.619317-6.493659 35.964878-15.422439 57.556292-25.175415-2.122927 8.92878-2.547512 14.211122-4.657951 19.480976-19.893073 53.997268-4.657951 38.587317-58.392975 63.338146l-30.470244 13.399415c-1.698341-0.811707-2.972098-1.623415-4.245854-2.435122zM349.184 574.439024c-24.113951-10.964293-47.39122-21.516488-70.243902-32.88039-3.384195-1.623415-5.931707-6.094049-7.192976-9.740488-5.931707-16.646244-11.426341-33.292488-18.194732-53.597658 8.878829 3.246829 13.961366 4.870244 19.043903 6.905756 19.031415 8.529171 38.087805 16.234146 56.282536 25.575024 5.91922 2.84722 11.838439 8.529171 13.961366 14.211122 4.233366 13.399415 6.343805 27.198439 8.878829 40.997464 0.424585 2.035512-1.261268 4.058537-2.535024 8.52917z"
          fill="#D09D32"/>
    <path d="M595.668293 537.862244c1.223805-0.424585 2.060488-1.286244 3.29678-1.710829 0-6.43122 1.24878-13.274537-0.412097-19.281171-8.691512-32.555707-18.619317-64.686829-24.838244-98.091707-4.957659-28.27239-27.310829-43.694829-52.973269-44.119415-31.868878-0.849171-55.458341 18.419512-60.428487 53.123122-3.721366 25.262829-9.927805 49.251902-18.20722 73.240976-2.897171 8.566634-3.721366 17.570341-4.970146 26.56156-0.412098 2.997073 1.24878 6.43122 2.497561 12.849952 6.618537-7.28039 11.164098-12.425366 14.485853-16.708683 5.781854 11.139122 11.164098 21.853659 16.546342 31.706536-4.558049 3.846244-9.116098 8.129561-14.073756 11.988293l1.24878 5.144976c40.135805 2.135415 80.296585 2.997073 120.007805-0.437074l1.248781-5.132487c-4.957659-3.858732-9.515707-7.717463-13.649171-11.139122 5.369756-10.714537 10.752-21.416585 16.546341-32.131122 4.558049 4.283317 9.116098 9.428293 13.661659 14.136195z"
          fill="#242424"/>
</svg>